<svg xmlns="http://www.w3.org/2000/svg" height="24" viewBox="0 -960 960 960" width="24"><path d="M830.615-521.077v391.076H130.616v-391.845q-24.154-19.847-36.27-51.5-12.115-31.654-.5-68.346l57.924-188.307h656.922l58.692 188.307q11.615 36.692-.5 68.115-12.115 31.423-36.269 52.5Zm-262-28.922q32.77 0 49.27-20.039 16.5-20.038 13.5-43.038l-24.307-156.925h-96.463V-612q0 25.231 17.077 43.616 17.077 18.385 40.923 18.385Zm-180 0q27.616 0 44.809-18.385 17.192-18.385 17.192-43.616v-158.001h-96.463l-24.308 158.463q-3.23 21.308 13.385 41.423 16.616 20.116 45.385 20.116Zm-178 0q22.231 0 38.232-15.5 16-15.501 19.769-38.962l23.539-165.54h-97.617l-41.923 141.693q-7.924 25.77 7.461 52.039 15.385 26.27 50.539 26.27Zm540 0q32.462 0 49.693-25.5 17.231-25.501 8.308-52.809l-43.538-141.693h-96.002l23.539 165.54q3.769 23.461 19.769 38.962 16 15.5 38.231 15.5Zm-560 360h580.001v-303.54q-6.538 2.384-10.923 2.961t-9.078.577q-27 0-47.5-9.769t-39.73-31.308q-16.846 18.769-39.846 29.923-23 11.154-52.462 11.154-25.462 0-48-10.577t-42.462-30.5q-18.538 19.923-42 30.5-23.461 10.577-47.538 10.577-27.077 0-50.769-9.807-23.693-9.808-41.693-31.27-25.231 25.231-46.5 33.154-21.269 7.923-41.5 7.923-4.692 0-9.692-.577-5.001-.577-10.308-2.961v303.54Zm567.692 0H202.923h555.384Z"/></svg>